
<svg width="291" height="280" viewBox="0 0 291 280" fill="none" xmlns="http://www.w3.org/2000/svg">
<rect x="20" y="148" width="271" height="113" fill="#C4C4C4"/>
<rect x="20" width="271" height="148" fill="#1C1C1C"/>
<rect x="26" y="8" width="259" height="133" fill="#F1F1F1"/>
<rect y="256" width="291" height="24" fill="#B8B8B8"/>
<rect y="172" width="20" height="84" fill="#B8B8B8"/>
<path d="M0 172L20.025 146.885L20.025 197.115L0 172Z" fill="#B8B8B8"/>
<rect x="211" y="179.739" width="30" height="6.26087" fill="#B8B8B8"/>
<rect x="211" y="164.087" width="5.45455" height="21.913" fill="#B8B8B8"/>
<path d="M211 163.826L216.523 157.048V170.604L211 163.826Z" fill="#B8B8B8"/>
<rect x="248" y="179.739" width="30" height="6.26087" fill="#B8B8B8"/>
<rect x="248" y="164.087" width="5.45455" height="21.913" fill="#B8B8B8"/>
<path d="M248 163.826L253.523 157.048V170.604L248 163.826Z" fill="#B8B8B8"/>
<rect x="248" y="210.739" width="30" height="6.26087" fill="#B8B8B8"/>
<rect x="248" y="195.087" width="5.45455" height="21.913" fill="#B8B8B8"/>
<path d="M248 194.826L253.523 188.048V201.604L248 194.826Z" fill="#B8B8B8"/>
<rect x="174" y="179.739" width="30" height="6.26087" fill="#B8B8B8"/>
<rect x="174" y="164.087" width="5.45455" height="21.913" fill="#B8B8B8"/>
<path d="M174 163.826L179.523 157.048V170.604L174 163.826Z" fill="#B8B8B8"/>
<rect x="211" y="210.739" width="30" height="6.26087" fill="#B8B8B8"/>
<rect x="211" y="195.087" width="5.45455" height="21.913" fill="#B8B8B8"/>
<path d="M211 194.826L216.523 188.048V201.604L211 194.826Z" fill="#B8B8B8"/>
<rect x="174" y="210.739" width="30" height="6.26087" fill="#B8B8B8"/>
<rect x="174" y="195.087" width="5.45455" height="21.913" fill="#B8B8B8"/>
<path d="M174 194.826L179.523 188.048V201.604L174 194.826Z" fill="#B8B8B8"/>
<rect x="137" y="179.739" width="30" height="6.26087" fill="#B8B8B8"/>
<rect x="137" y="164.087" width="5.45455" height="21.913" fill="#B8B8B8"/>
<path d="M137 163.826L142.523 157.048V170.604L137 163.826Z" fill="#B8B8B8"/>
<rect x="137" y="210.739" width="30" height="6.26087" fill="#B8B8B8"/>
<rect x="137" y="195.087" width="5.45455" height="21.913" fill="#B8B8B8"/>
<path d="M137 194.826L142.523 188.048V201.604L137 194.826Z" fill="#B8B8B8"/>
<rect x="137" y="241.739" width="30" height="6.26087" fill="#B8B8B8"/>
<rect x="137" y="226.087" width="5.45455" height="21.913" fill="#B8B8B8"/>
<path d="M137 225.826L142.523 219.048V232.604L137 225.826Z" fill="#B8B8B8"/>
<rect x="248" y="241.739" width="30" height="6.26087" fill="#B8B8B8"/>
<rect x="248" y="226.087" width="5.45455" height="21.913" fill="#B8B8B8"/>
<path d="M248 225.826L253.523 219.048V232.604L248 225.826Z" fill="#B8B8B8"/>
<rect x="100" y="179.739" width="30" height="6.26087" fill="#B8B8B8"/>
<rect x="100" y="164.087" width="5.45455" height="21.913" fill="#B8B8B8"/>
<path d="M100 163.826L105.523 157.048V170.604L100 163.826Z" fill="#B8B8B8"/>
<rect x="100" y="210.739" width="30" height="6.26087" fill="#B8B8B8"/>
<rect x="100" y="195.087" width="5.45455" height="21.913" fill="#B8B8B8"/>
<path d="M100 194.826L105.523 188.048V201.604L100 194.826Z" fill="#B8B8B8"/>
<rect x="100" y="241.739" width="30" height="6.26087" fill="#B8B8B8"/>
<rect x="100" y="226.087" width="5.45455" height="21.913" fill="#B8B8B8"/>
<path d="M100 225.826L105.523 219.048V232.604L100 225.826Z" fill="#B8B8B8"/>
<rect x="211" y="241.739" width="30" height="6.26087" fill="#B8B8B8"/>
<rect x="211" y="226.087" width="5.45455" height="21.913" fill="#B8B8B8"/>
<path d="M211 225.826L216.523 219.048V232.604L211 225.826Z" fill="#B8B8B8"/>
<rect x="63" y="179.739" width="30" height="6.26087" fill="#B8B8B8"/>
<rect x="63" y="164.087" width="5.45455" height="21.913" fill="#B8B8B8"/>
<path d="M63 163.826L68.5227 157.048V170.604L63 163.826Z" fill="#B8B8B8"/>
<rect x="63" y="210.739" width="30" height="6.26087" fill="#B8B8B8"/>
<rect x="63" y="195.087" width="5.45455" height="21.913" fill="#B8B8B8"/>
<path d="M63 194.826L68.5227 188.048V201.604L63 194.826Z" fill="#B8B8B8"/>
<rect x="63" y="241.739" width="30" height="6.26087" fill="#B8B8B8"/>
<rect x="63" y="226.087" width="5.45455" height="21.913" fill="#B8B8B8"/>
<path d="M63 225.826L68.5227 219.048V232.604L63 225.826Z" fill="#B8B8B8"/>
<rect x="174" y="241.739" width="30" height="6.26087" fill="#B8B8B8"/>
<rect x="174" y="226.087" width="5.45455" height="21.913" fill="#B8B8B8"/>
<path d="M174 225.826L179.523 219.048V232.604L174 225.826Z" fill="#B8B8B8"/>
<rect x="28" y="179.739" width="30" height="6.26087" fill="#B8B8B8"/>
<rect x="28" y="164.087" width="5.45455" height="21.913" fill="#B8B8B8"/>
<path d="M28 163.826L33.5227 157.048V170.604L28 163.826Z" fill="#B8B8B8"/>
<rect x="28" y="210.739" width="30" height="6.26087" fill="#B8B8B8"/>
<rect x="28" y="195.087" width="5.45455" height="21.913" fill="#B8B8B8"/>
<path d="M28 194.826L33.5227 188.048V201.604L28 194.826Z" fill="#B8B8B8"/>
<rect x="28" y="241.739" width="30" height="6.26087" fill="#B8B8B8"/>
<rect x="28" y="226.087" width="5.45455" height="21.913" fill="#B8B8B8"/>
<path d="M28 225.826L33.5227 219.048V232.604L28 225.826Z" fill="#B8B8B8"/>
<rect x="216.2" y="157.3" width="24.9" height="22.5" fill="#D4D4D4"/>
<rect x="253.2" y="157.3" width="24.9" height="22.5" fill="#D4D4D4"/>
<rect x="253.2" y="188.3" width="24.9" height="22.5" fill="#D4D4D4"/>
<rect x="179.2" y="157.3" width="24.9" height="22.5" fill="#D4D4D4"/>
<rect x="216.2" y="188.3" width="24.9" height="22.5" fill="#D4D4D4"/>
<rect x="179.2" y="188" width="24.9" height="22.5" fill="#D4D4D4"/>
<rect x="142.2" y="157.3" width="24.9" height="22.5" fill="#D4D4D4"/>
<rect x="142.2" y="188.3" width="24.9" height="22.5" fill="#D4D4D4"/>
<rect x="142.2" y="219.3" width="24.9" height="22.5" fill="#D4D4D4"/>
<rect x="253.2" y="219.3" width="24.9" height="22.5" fill="#D4D4D4"/>
<rect x="105.2" y="157.3" width="24.9" height="22.5" fill="#D4D4D4"/>
<rect x="105.2" y="188.3" width="24.9" height="22.5" fill="#D4D4D4"/>
<rect x="105.2" y="219.3" width="24.9" height="22.5" fill="#D4D4D4"/>
<rect x="216.2" y="219.3" width="24.9" height="22.5" fill="#D4D4D4"/>
<rect x="68.2" y="157.3" width="24.9" height="22.5" fill="#D4D4D4"/>
<rect x="68.2" y="188.3" width="24.9" height="22.5" fill="#D4D4D4"/>
<rect x="68.2" y="219.3" width="24.9" height="22.5" fill="#D4D4D4"/>
<rect x="179.2" y="219.3" width="24.9" height="22.5" fill="#D4D4D4"/>
<rect x="33.2" y="157.3" width="24.9" height="22.5" fill="#D5D5D5"/>
<rect x="33.2" y="188.3" width="24.9" height="22.5" fill="#D5D5D5"/>
<rect x="33.2" y="219.3" width="24.9" height="22.5" fill="#D5D5D5"/>
<path d="M195.904 175.2H194.208L187.766 165.339V175.2H186.069V162.403H187.766L194.226 172.308V162.403H195.904V175.2Z" fill="black"/>
<path d="M231.127 170.228H226.838V168.9H231.127V170.228Z" fill="black"/>
<path d="M158.604 199.985H153.058V204.52H159.5V205.9H151.37V193.103H159.412V194.492H153.058V198.605H158.604V199.985Z" fill="black"/>
<path d="M154.633 169.723H151.627V174.9H149.931V162.103H154.167C155.608 162.103 156.716 162.431 157.489 163.087C158.269 163.744 158.658 164.699 158.658 165.953C158.658 166.75 158.441 167.444 158.008 168.036C157.58 168.628 156.982 169.07 156.215 169.363L159.221 174.794V174.9H157.41L154.633 169.723ZM151.627 168.343H154.22C155.058 168.343 155.723 168.127 156.215 167.693C156.713 167.259 156.962 166.679 156.962 165.953C156.962 165.162 156.725 164.555 156.25 164.133C155.781 163.711 155.102 163.498 154.211 163.492H151.627V168.343Z" fill="black"/>
<path d="M113.579 205.6V192.803H117.191C118.305 192.803 119.289 193.049 120.145 193.541C121 194.034 121.659 194.734 122.122 195.642C122.591 196.55 122.828 197.593 122.834 198.771V199.588C122.834 200.795 122.6 201.853 122.131 202.761C121.668 203.669 121.003 204.367 120.136 204.853C119.274 205.339 118.27 205.588 117.121 205.6H113.579ZM115.267 194.192V204.22H117.042C118.343 204.22 119.354 203.816 120.074 203.007C120.801 202.199 121.164 201.047 121.164 199.553V198.806C121.164 197.353 120.821 196.225 120.136 195.422C119.456 194.614 118.489 194.203 117.235 194.192H115.267Z" fill="black"/>
<path d="M119.681 171.26H114.319L113.115 174.6H111.375L116.262 161.803H117.738L122.634 174.6H120.902L119.681 171.26ZM114.829 169.871H119.18L117 163.886L114.829 169.871Z" fill="black"/>
<path d="M121.604 231.085H116.058V235.62H122.5V237H114.37V224.203H122.412V225.592H116.058V229.705H121.604V231.085Z" fill="black"/>
<path d="M86.1416 199.315C86.1416 200.569 85.9307 201.664 85.5088 202.602C85.0869 203.533 84.4893 204.245 83.7158 204.737C82.9424 205.23 82.04 205.476 81.0088 205.476C80.001 205.476 79.1074 205.23 78.3281 204.737C77.5488 204.239 76.9424 203.533 76.5088 202.619C76.0811 201.699 75.8613 200.636 75.8496 199.429V198.506C75.8496 197.276 76.0635 196.189 76.4912 195.245C76.9189 194.302 77.5225 193.581 78.3018 193.083C79.0869 192.579 79.9834 192.327 80.9912 192.327C82.0166 192.327 82.9189 192.576 83.6982 193.074C84.4834 193.567 85.0869 194.284 85.5088 195.228C85.9307 196.165 86.1416 197.258 86.1416 198.506V199.315ZM84.4629 198.488C84.4629 196.971 84.1582 195.808 83.5488 194.999C82.9395 194.185 82.0869 193.778 80.9912 193.778C79.9248 193.778 79.084 194.185 78.4688 194.999C77.8594 195.808 77.5459 196.933 77.5283 198.374V199.315C77.5283 200.785 77.8359 201.943 78.4512 202.786C79.0723 203.624 79.9248 204.043 81.0088 204.043C82.0986 204.043 82.9424 203.648 83.54 202.857C84.1377 202.06 84.4453 200.92 84.4629 199.438V198.488Z" fill="black"/>
<path d="M83.6035 168.385H78.0576V172.92H84.5V174.3H76.3701V161.503H84.4121V162.892H78.0576V167.005H83.6035V168.385Z" fill="black"/>
<path d="M76.8076 224.203L80.9912 234.645L85.1748 224.203H87.3633V237H85.6758V232.017L85.834 226.638L81.6328 237H80.3408L76.1484 226.664L76.3154 232.017V237H74.6279V224.203H76.8076Z" fill="black"/>
<path d="M51.0361 200.939C50.8779 202.293 50.377 203.339 49.5332 204.077C48.6953 204.81 47.5791 205.176 46.1846 205.176C44.6729 205.176 43.46 204.634 42.5459 203.55C41.6377 202.466 41.1836 201.016 41.1836 199.199V197.969C41.1836 196.779 41.3945 195.733 41.8164 194.831C42.2441 193.929 42.8477 193.237 43.627 192.757C44.4062 192.271 45.3086 192.027 46.334 192.027C47.6934 192.027 48.7832 192.408 49.6035 193.17C50.4238 193.926 50.9014 194.975 51.0361 196.316H49.3398C49.1934 195.297 48.874 194.559 48.3818 194.102C47.8955 193.645 47.2129 193.416 46.334 193.416C45.2559 193.416 44.4092 193.814 43.7939 194.611C43.1846 195.408 42.8799 196.542 42.8799 198.013V199.252C42.8799 200.641 43.1699 201.745 43.75 202.565C44.3301 203.386 45.1416 203.796 46.1846 203.796C47.1221 203.796 47.8398 203.585 48.3379 203.163C48.8418 202.735 49.1758 201.994 49.3398 200.939H51.0361Z" fill="black"/>
<path d="M43.3389 172.62H49.4033V174H41.6426V161.203H43.3389V172.62Z" fill="black"/>
<path d="M44.8926 236.147C44.8926 235.866 44.9746 235.632 45.1387 235.444C45.3086 235.257 45.5605 235.163 45.8945 235.163C46.2285 235.163 46.4805 235.257 46.6504 235.444C46.8262 235.632 46.9141 235.866 46.9141 236.147C46.9141 236.417 46.8262 236.643 46.6504 236.824C46.4805 237.006 46.2285 237.097 45.8945 237.097C45.5605 237.097 45.3086 237.006 45.1387 236.824C44.9746 236.643 44.8926 236.417 44.8926 236.147Z" fill="black"/>
<rect x="32" y="17" width="76" height="10" rx="5" fill="#D600C0"/>
<rect x="32" y="34" width="92" height="10" rx="5" fill="#D600C0"/>
<rect x="32" y="51" width="87" height="10" rx="5" fill="#D600C0"/>
<rect x="32" y="68" width="44" height="10" rx="5" fill="#D600C0"/>
</svg>
