<svg width="754" height="553" viewBox="0 0 754 553" fill="none" xmlns="http://www.w3.org/2000/svg">
<path d="M692 424C711.606 424 738.658 418.647 715 398C660 350 695 306 660 320" stroke="black" stroke-width="2"/>
<rect x="30" y="235" width="721" height="315" rx="56" stroke="black" stroke-width="6"/>
<path d="M182.09 76.6379C203.543 41.5892 254.457 41.5891 275.91 76.6378L376.079 240.286C398.511 276.935 372.138 324 329.169 324H128.831C85.8621 324 59.4886 276.935 81.921 240.287L182.09 76.6379Z" fill="#D3D3D3"/>
<path d="M214.242 130.219C214.242 131.359 214.023 132.43 213.586 133.43C213.164 134.43 212.578 135.305 211.828 136.055C211.078 136.805 210.203 137.398 209.203 137.836C208.203 138.258 207.133 138.469 205.992 138.469H203.602C202.461 138.469 201.383 138.258 200.367 137.836C199.367 137.398 198.492 136.805 197.742 136.055C196.992 135.305 196.398 134.43 195.961 133.43C195.539 132.43 195.328 131.359 195.328 130.219V112.172C195.328 111.031 195.539 109.961 195.961 108.961C196.398 107.961 196.992 107.086 197.742 106.336C198.492 105.586 199.367 105 200.367 104.578C201.383 104.141 202.461 103.922 203.602 103.922H205.992C207.133 103.922 208.203 104.141 209.203 104.578C210.203 105 211.078 105.586 211.828 106.336C212.578 107.086 213.164 107.961 213.586 108.961C214.023 109.961 214.242 111.031 214.242 112.172V113.531L211.219 114V112.172C211.219 111.422 211.078 110.727 210.797 110.086C210.516 109.43 210.133 108.859 209.648 108.375C209.164 107.891 208.594 107.508 207.938 107.227C207.297 106.945 206.602 106.805 205.852 106.805H203.742C202.992 106.805 202.289 106.945 201.633 107.227C200.992 107.508 200.422 107.891 199.922 108.375C199.438 108.859 199.055 109.43 198.773 110.086C198.492 110.727 198.352 111.422 198.352 112.172V130.219C198.352 130.969 198.492 131.672 198.773 132.328C199.055 132.969 199.438 133.539 199.922 134.039C200.422 134.523 200.992 134.906 201.633 135.188C202.289 135.469 202.992 135.609 203.742 135.609H205.852C206.602 135.609 207.297 135.469 207.938 135.188C208.594 134.906 209.164 134.523 209.648 134.039C210.133 133.539 210.516 132.969 210.797 132.328C211.078 131.672 211.219 130.969 211.219 130.219V128.391L214.242 128.883V130.219ZM239.414 130.219C239.414 131.359 239.18 132.43 238.711 133.43C238.258 134.43 237.641 135.305 236.859 136.055C236.094 136.805 235.195 137.398 234.164 137.836C233.148 138.258 232.07 138.469 230.93 138.469H228.516C227.375 138.469 226.289 138.258 225.258 137.836C224.242 137.398 223.344 136.805 222.562 136.055C221.797 135.305 221.18 134.43 220.711 133.43C220.258 132.43 220.031 131.359 220.031 130.219V128.883L223.055 128.391V130.219C223.055 130.969 223.203 131.672 223.5 132.328C223.812 132.969 224.227 133.539 224.742 134.039C225.258 134.523 225.852 134.906 226.523 135.188C227.211 135.469 227.93 135.609 228.68 135.609H230.789C231.539 135.609 232.25 135.469 232.922 135.188C233.594 134.906 234.188 134.523 234.703 134.039C235.219 133.539 235.625 132.969 235.922 132.328C236.234 131.672 236.391 130.969 236.391 130.219V129.211C236.391 128.055 236.164 127.094 235.711 126.328C235.258 125.562 234.656 124.914 233.906 124.383C233.156 123.836 232.305 123.375 231.352 123C230.414 122.625 229.445 122.25 228.445 121.875C227.445 121.5 226.469 121.086 225.516 120.633C224.578 120.18 223.734 119.617 222.984 118.945C222.234 118.258 221.633 117.422 221.18 116.438C220.727 115.453 220.5 114.242 220.5 112.805V112.172C220.5 111.031 220.711 109.961 221.133 108.961C221.57 107.961 222.164 107.086 222.914 106.336C223.664 105.586 224.539 105 225.539 104.578C226.555 104.141 227.633 103.922 228.773 103.922H230.93C232.07 103.922 233.141 104.141 234.141 104.578C235.141 105 236.016 105.586 236.766 106.336C237.516 107.086 238.102 107.961 238.523 108.961C238.961 109.961 239.18 111.031 239.18 112.172V113.039L236.156 113.531V112.172C236.156 111.422 236.016 110.727 235.734 110.086C235.453 109.43 235.07 108.859 234.586 108.375C234.102 107.891 233.531 107.508 232.875 107.227C232.234 106.945 231.539 106.805 230.789 106.805H228.914C228.164 106.805 227.461 106.945 226.805 107.227C226.164 107.508 225.594 107.891 225.094 108.375C224.609 108.859 224.227 109.43 223.945 110.086C223.664 110.727 223.523 111.422 223.523 112.172V112.805C223.523 113.883 223.75 114.789 224.203 115.523C224.656 116.258 225.258 116.891 226.008 117.422C226.758 117.938 227.602 118.391 228.539 118.781C229.492 119.156 230.469 119.547 231.469 119.953C232.469 120.344 233.438 120.781 234.375 121.266C235.328 121.734 236.18 122.32 236.93 123.023C237.68 123.711 238.281 124.555 238.734 125.555C239.188 126.555 239.414 127.773 239.414 129.211V130.219ZM264.352 130.219C264.352 131.359 264.117 132.43 263.648 133.43C263.195 134.43 262.578 135.305 261.797 136.055C261.031 136.805 260.133 137.398 259.102 137.836C258.086 138.258 257.008 138.469 255.867 138.469H253.453C252.312 138.469 251.227 138.258 250.195 137.836C249.18 137.398 248.281 136.805 247.5 136.055C246.734 135.305 246.117 134.43 245.648 133.43C245.195 132.43 244.969 131.359 244.969 130.219V128.883L247.992 128.391V130.219C247.992 130.969 248.141 131.672 248.438 132.328C248.75 132.969 249.164 133.539 249.68 134.039C250.195 134.523 250.789 134.906 251.461 135.188C252.148 135.469 252.867 135.609 253.617 135.609H255.727C256.477 135.609 257.188 135.469 257.859 135.188C258.531 134.906 259.125 134.523 259.641 134.039C260.156 133.539 260.562 132.969 260.859 132.328C261.172 131.672 261.328 130.969 261.328 130.219V129.211C261.328 128.055 261.102 127.094 260.648 126.328C260.195 125.562 259.594 124.914 258.844 124.383C258.094 123.836 257.242 123.375 256.289 123C255.352 122.625 254.383 122.25 253.383 121.875C252.383 121.5 251.406 121.086 250.453 120.633C249.516 120.18 248.672 119.617 247.922 118.945C247.172 118.258 246.57 117.422 246.117 116.438C245.664 115.453 245.438 114.242 245.438 112.805V112.172C245.438 111.031 245.648 109.961 246.07 108.961C246.508 107.961 247.102 107.086 247.852 106.336C248.602 105.586 249.477 105 250.477 104.578C251.492 104.141 252.57 103.922 253.711 103.922H255.867C257.008 103.922 258.078 104.141 259.078 104.578C260.078 105 260.953 105.586 261.703 106.336C262.453 107.086 263.039 107.961 263.461 108.961C263.898 109.961 264.117 111.031 264.117 112.172V113.039L261.094 113.531V112.172C261.094 111.422 260.953 110.727 260.672 110.086C260.391 109.43 260.008 108.859 259.523 108.375C259.039 107.891 258.469 107.508 257.812 107.227C257.172 106.945 256.477 106.805 255.727 106.805H253.852C253.102 106.805 252.398 106.945 251.742 107.227C251.102 107.508 250.531 107.891 250.031 108.375C249.547 108.859 249.164 109.43 248.883 110.086C248.602 110.727 248.461 111.422 248.461 112.172V112.805C248.461 113.883 248.688 114.789 249.141 115.523C249.594 116.258 250.195 116.891 250.945 117.422C251.695 117.938 252.539 118.391 253.477 118.781C254.43 119.156 255.406 119.547 256.406 119.953C257.406 120.344 258.375 120.781 259.312 121.266C260.266 121.734 261.117 122.32 261.867 123.023C262.617 123.711 263.219 124.555 263.672 125.555C264.125 126.555 264.352 127.773 264.352 129.211V130.219Z" fill="black"/>
<path d="M199.617 216V200.648H186.75V216H183.727V182.391H186.75V197.766H199.617V182.391H202.641V216H199.617ZM218.508 185.273V216H215.484V185.273H207.469V182.391H226.523V185.273H218.508ZM252.047 216V192.961L251.836 194.391L244.031 216H242.438L234.562 194.391L234.375 192.961V216H231.352V182.391H232.922L243.117 209.953L243.211 211.195L243.305 209.953L253.477 182.391H255.07V216H252.047ZM262.266 216V182.391H265.289V213.117H278.156V216H262.266Z" fill="black"/>
<path d="M150.719 285.219C150.719 286.359 150.5 287.43 150.062 288.43C149.641 289.43 149.055 290.305 148.305 291.055C147.555 291.805 146.68 292.398 145.68 292.836C144.68 293.258 143.609 293.469 142.469 293.469H141.508C140.367 293.469 139.289 293.258 138.273 292.836C137.273 292.398 136.398 291.805 135.648 291.055C134.898 290.305 134.305 289.43 133.867 288.43C133.445 287.43 133.234 286.359 133.234 285.219V283.883L136.258 283.391V285.219C136.258 285.969 136.398 286.672 136.68 287.328C136.961 287.969 137.344 288.539 137.828 289.039C138.328 289.523 138.898 289.906 139.539 290.188C140.195 290.469 140.898 290.609 141.648 290.609H142.328C143.062 290.609 143.758 290.469 144.414 290.188C145.07 289.906 145.641 289.523 146.125 289.039C146.609 288.539 146.992 287.969 147.273 287.328C147.555 286.672 147.695 285.969 147.695 285.219V259.391H150.719V285.219ZM171.555 293L169.961 290.609C169.305 291.469 168.484 292.164 167.5 292.695C166.516 293.211 165.438 293.469 164.266 293.469H163.539C162.57 293.469 161.656 293.289 160.797 292.93C159.938 292.555 159.188 292.047 158.547 291.406C157.906 290.766 157.398 290.016 157.023 289.156C156.664 288.297 156.484 287.383 156.484 286.414V286.18C156.484 285.211 156.664 284.297 157.023 283.438C157.398 282.578 157.906 281.828 158.547 281.188C159.188 280.547 159.938 280.047 160.797 279.688C161.656 279.312 162.57 279.125 163.539 279.125H169.633V275.422C169.633 274.844 169.523 274.305 169.305 273.805C169.086 273.289 168.789 272.844 168.414 272.469C168.039 272.094 167.594 271.797 167.078 271.578C166.578 271.359 166.039 271.25 165.461 271.25H163.773C163.195 271.25 162.648 271.359 162.133 271.578C161.633 271.797 161.195 272.094 160.82 272.469C160.445 272.844 160.148 273.289 159.93 273.805C159.711 274.305 159.602 274.844 159.602 275.422V276.289L156.719 275.82V275.586C156.719 274.617 156.898 273.703 157.258 272.844C157.633 271.984 158.141 271.234 158.781 270.594C159.422 269.953 160.172 269.453 161.031 269.094C161.891 268.719 162.805 268.531 163.773 268.531H165.461C166.43 268.531 167.344 268.719 168.203 269.094C169.062 269.453 169.812 269.953 170.453 270.594C171.094 271.234 171.594 271.984 171.953 272.844C172.328 273.703 172.516 274.617 172.516 275.586V293H171.555ZM169.633 281.375H163.539C162.961 281.375 162.414 281.484 161.898 281.703C161.398 281.922 160.961 282.227 160.586 282.617C160.211 282.992 159.914 283.438 159.695 283.953C159.477 284.453 159.367 284.992 159.367 285.57V286.578C159.367 287.156 159.477 287.703 159.695 288.219C159.914 288.719 160.211 289.156 160.586 289.531C160.961 289.906 161.398 290.203 161.898 290.422C162.414 290.641 162.961 290.75 163.539 290.75H165.461C166.039 290.75 166.578 290.641 167.078 290.422C167.594 290.203 168.039 289.906 168.414 289.531C168.789 289.156 169.086 288.719 169.305 288.219C169.523 287.703 169.633 287.156 169.633 286.578V281.375ZM185.805 293H184.375L175.867 269H178.75L185.008 287.188L185.102 288.43L185.195 287.188L191.43 269H194.312L185.805 293ZM212.758 293L211.164 290.609C210.508 291.469 209.688 292.164 208.703 292.695C207.719 293.211 206.641 293.469 205.469 293.469H204.742C203.773 293.469 202.859 293.289 202 292.93C201.141 292.555 200.391 292.047 199.75 291.406C199.109 290.766 198.602 290.016 198.227 289.156C197.867 288.297 197.688 287.383 197.688 286.414V286.18C197.688 285.211 197.867 284.297 198.227 283.438C198.602 282.578 199.109 281.828 199.75 281.188C200.391 280.547 201.141 280.047 202 279.688C202.859 279.312 203.773 279.125 204.742 279.125H210.836V275.422C210.836 274.844 210.727 274.305 210.508 273.805C210.289 273.289 209.992 272.844 209.617 272.469C209.242 272.094 208.797 271.797 208.281 271.578C207.781 271.359 207.242 271.25 206.664 271.25H204.977C204.398 271.25 203.852 271.359 203.336 271.578C202.836 271.797 202.398 272.094 202.023 272.469C201.648 272.844 201.352 273.289 201.133 273.805C200.914 274.305 200.805 274.844 200.805 275.422V276.289L197.922 275.82V275.586C197.922 274.617 198.102 273.703 198.461 272.844C198.836 271.984 199.344 271.234 199.984 270.594C200.625 269.953 201.375 269.453 202.234 269.094C203.094 268.719 204.008 268.531 204.977 268.531H206.664C207.633 268.531 208.547 268.719 209.406 269.094C210.266 269.453 211.016 269.953 211.656 270.594C212.297 271.234 212.797 271.984 213.156 272.844C213.531 273.703 213.719 274.617 213.719 275.586V293H212.758ZM210.836 281.375H204.742C204.164 281.375 203.617 281.484 203.102 281.703C202.602 281.922 202.164 282.227 201.789 282.617C201.414 282.992 201.117 283.438 200.898 283.953C200.68 284.453 200.57 284.992 200.57 285.57V286.578C200.57 287.156 200.68 287.703 200.898 288.219C201.117 288.719 201.414 289.156 201.789 289.531C202.164 289.906 202.602 290.203 203.102 290.422C203.617 290.641 204.164 290.75 204.742 290.75H206.664C207.242 290.75 207.781 290.641 208.281 290.422C208.797 290.203 209.242 289.906 209.617 289.531C209.992 289.156 210.289 288.719 210.508 288.219C210.727 287.703 210.836 287.156 210.836 286.578V281.375ZM238.867 285.219C238.867 286.359 238.633 287.43 238.164 288.43C237.711 289.43 237.094 290.305 236.312 291.055C235.547 291.805 234.648 292.398 233.617 292.836C232.602 293.258 231.523 293.469 230.383 293.469H227.969C226.828 293.469 225.742 293.258 224.711 292.836C223.695 292.398 222.797 291.805 222.016 291.055C221.25 290.305 220.633 289.43 220.164 288.43C219.711 287.43 219.484 286.359 219.484 285.219V283.883L222.508 283.391V285.219C222.508 285.969 222.656 286.672 222.953 287.328C223.266 287.969 223.68 288.539 224.195 289.039C224.711 289.523 225.305 289.906 225.977 290.188C226.664 290.469 227.383 290.609 228.133 290.609H230.242C230.992 290.609 231.703 290.469 232.375 290.188C233.047 289.906 233.641 289.523 234.156 289.039C234.672 288.539 235.078 287.969 235.375 287.328C235.688 286.672 235.844 285.969 235.844 285.219V284.211C235.844 283.055 235.617 282.094 235.164 281.328C234.711 280.562 234.109 279.914 233.359 279.383C232.609 278.836 231.758 278.375 230.805 278C229.867 277.625 228.898 277.25 227.898 276.875C226.898 276.5 225.922 276.086 224.969 275.633C224.031 275.18 223.188 274.617 222.438 273.945C221.688 273.258 221.086 272.422 220.633 271.438C220.18 270.453 219.953 269.242 219.953 267.805V267.172C219.953 266.031 220.164 264.961 220.586 263.961C221.023 262.961 221.617 262.086 222.367 261.336C223.117 260.586 223.992 260 224.992 259.578C226.008 259.141 227.086 258.922 228.227 258.922H230.383C231.523 258.922 232.594 259.141 233.594 259.578C234.594 260 235.469 260.586 236.219 261.336C236.969 262.086 237.555 262.961 237.977 263.961C238.414 264.961 238.633 266.031 238.633 267.172V268.039L235.609 268.531V267.172C235.609 266.422 235.469 265.727 235.188 265.086C234.906 264.43 234.523 263.859 234.039 263.375C233.555 262.891 232.984 262.508 232.328 262.227C231.688 261.945 230.992 261.805 230.242 261.805H228.367C227.617 261.805 226.914 261.945 226.258 262.227C225.617 262.508 225.047 262.891 224.547 263.375C224.062 263.859 223.68 264.43 223.398 265.086C223.117 265.727 222.977 266.422 222.977 267.172V267.805C222.977 268.883 223.203 269.789 223.656 270.523C224.109 271.258 224.711 271.891 225.461 272.422C226.211 272.938 227.055 273.391 227.992 273.781C228.945 274.156 229.922 274.547 230.922 274.953C231.922 275.344 232.891 275.781 233.828 276.266C234.781 276.734 235.633 277.32 236.383 278.023C237.133 278.711 237.734 279.555 238.188 280.555C238.641 281.555 238.867 282.773 238.867 284.211V285.219ZM260.453 286.414C260.453 287.383 260.266 288.297 259.891 289.156C259.531 290.016 259.031 290.766 258.391 291.406C257.75 292.047 257 292.555 256.141 292.93C255.281 293.289 254.367 293.469 253.398 293.469H251.477C250.508 293.469 249.594 293.289 248.734 292.93C247.875 292.555 247.125 292.047 246.484 291.406C245.844 290.766 245.336 290.016 244.961 289.156C244.602 288.297 244.422 287.383 244.422 286.414V275.586C244.422 274.617 244.602 273.703 244.961 272.844C245.336 271.984 245.844 271.234 246.484 270.594C247.125 269.953 247.875 269.453 248.734 269.094C249.594 268.719 250.508 268.531 251.477 268.531H253.398C254.367 268.531 255.281 268.719 256.141 269.094C257 269.453 257.75 269.953 258.391 270.594C259.031 271.234 259.531 271.984 259.891 272.844C260.266 273.703 260.453 274.617 260.453 275.586V276.547L257.57 277.016V275.422C257.57 274.844 257.461 274.305 257.242 273.805C257.023 273.289 256.727 272.844 256.352 272.469C255.977 272.094 255.531 271.797 255.016 271.578C254.516 271.359 253.977 271.25 253.398 271.25H251.477C250.898 271.25 250.352 271.359 249.836 271.578C249.336 271.797 248.898 272.094 248.523 272.469C248.148 272.844 247.852 273.289 247.633 273.805C247.414 274.305 247.305 274.844 247.305 275.422V286.578C247.305 287.156 247.414 287.703 247.633 288.219C247.852 288.719 248.148 289.156 248.523 289.531C248.898 289.906 249.336 290.203 249.836 290.422C250.352 290.641 250.898 290.75 251.477 290.75H253.398C253.977 290.75 254.516 290.641 255.016 290.422C255.531 290.203 255.977 289.906 256.352 289.531C256.727 289.156 257.023 288.719 257.242 288.219C257.461 287.703 257.57 287.156 257.57 286.578V284.984L260.453 285.453V286.414ZM273.273 271.742C272.695 271.742 272.148 271.852 271.633 272.07C271.133 272.289 270.695 272.586 270.32 272.961C269.945 273.336 269.648 273.781 269.43 274.297C269.211 274.797 269.102 275.336 269.102 275.914V293H266.219V269H267.18L268.75 271.438C269.406 270.547 270.227 269.844 271.211 269.328C272.211 268.797 273.297 268.531 274.469 268.531H276.156V271.742H273.273ZM280.727 263.234V259.391H284.078V263.234H280.727ZM280.961 293V269H283.844V293H280.961ZM306.625 286.414C306.625 287.383 306.438 288.297 306.062 289.156C305.703 290.016 305.203 290.766 304.562 291.406C303.922 292.047 303.172 292.555 302.312 292.93C301.453 293.289 300.539 293.469 299.57 293.469H298.844C297.766 293.469 296.766 293.25 295.844 292.812C294.922 292.375 294.133 291.766 293.477 290.984V302.609H290.594V269H291.555L293.125 271.438C293.781 270.547 294.602 269.844 295.586 269.328C296.586 268.797 297.672 268.531 298.844 268.531H299.57C300.539 268.531 301.453 268.719 302.312 269.094C303.172 269.453 303.922 269.953 304.562 270.594C305.203 271.234 305.703 271.984 306.062 272.844C306.438 273.703 306.625 274.617 306.625 275.586V286.414ZM303.742 275.422C303.742 274.844 303.633 274.305 303.414 273.805C303.195 273.289 302.898 272.844 302.523 272.469C302.148 272.094 301.703 271.797 301.188 271.578C300.688 271.359 300.148 271.25 299.57 271.25H297.648C297.07 271.25 296.523 271.359 296.008 271.578C295.508 271.797 295.07 272.094 294.695 272.469C294.32 272.844 294.023 273.289 293.805 273.805C293.586 274.305 293.477 274.844 293.477 275.422V286.578C293.477 287.156 293.586 287.703 293.805 288.219C294.023 288.719 294.32 289.156 294.695 289.531C295.07 289.906 295.508 290.203 296.008 290.422C296.523 290.641 297.07 290.75 297.648 290.75H299.57C300.148 290.75 300.688 290.641 301.188 290.422C301.703 290.203 302.148 289.906 302.523 289.531C302.898 289.156 303.195 288.719 303.414 288.219C303.633 287.703 303.742 287.156 303.742 286.578V275.422ZM321.133 293C320.258 293 319.43 292.836 318.648 292.508C317.883 292.18 317.211 291.727 316.633 291.148C316.07 290.57 315.617 289.898 315.273 289.133C314.945 288.367 314.781 287.547 314.781 286.672V271.742H310.469V269H314.781V263.234L317.664 262.766V269H323.758V271.742H317.664V286.812C317.664 287.297 317.75 287.75 317.922 288.172C318.109 288.578 318.359 288.938 318.672 289.25C318.984 289.562 319.352 289.812 319.773 290C320.195 290.172 320.648 290.258 321.133 290.258H323.758V293H321.133Z" fill="black"/>
<path d="M159.496 406V355.586H164.031V401.676H183.332V406H159.496ZM213.145 396.121C213.145 397.574 212.863 398.945 212.301 400.234C211.762 401.523 211.012 402.648 210.051 403.609C209.09 404.57 207.965 405.332 206.676 405.895C205.387 406.434 204.016 406.703 202.562 406.703H199.68C198.227 406.703 196.855 406.434 195.566 405.895C194.277 405.332 193.152 404.57 192.191 403.609C191.23 402.648 190.469 401.523 189.906 400.234C189.367 398.945 189.098 397.574 189.098 396.121V379.879C189.098 378.426 189.367 377.055 189.906 375.766C190.469 374.477 191.23 373.352 192.191 372.391C193.152 371.43 194.277 370.68 195.566 370.141C196.855 369.578 198.227 369.297 199.68 369.297H202.562C204.016 369.297 205.387 369.578 206.676 370.141C207.965 370.68 209.09 371.43 210.051 372.391C211.012 373.352 211.762 374.477 212.301 375.766C212.863 377.055 213.145 378.426 213.145 379.879V388.352H193.422V396.367C193.422 397.234 193.586 398.055 193.914 398.828C194.242 399.578 194.688 400.234 195.25 400.797C195.812 401.359 196.469 401.805 197.219 402.133C197.992 402.461 198.812 402.625 199.68 402.625H202.562C203.43 402.625 204.238 402.461 204.988 402.133C205.762 401.805 206.43 401.359 206.992 400.797C207.555 400.234 208 399.578 208.328 398.828C208.656 398.055 208.82 397.234 208.82 396.367V393.977L213.145 394.68V396.121ZM208.82 379.633C208.82 378.766 208.656 377.957 208.328 377.207C208 376.434 207.555 375.766 206.992 375.203C206.43 374.641 205.762 374.195 204.988 373.867C204.238 373.539 203.43 373.375 202.562 373.375H199.68C198.812 373.375 197.992 373.539 197.219 373.867C196.469 374.195 195.812 374.641 195.25 375.203C194.688 375.766 194.242 376.434 193.914 377.207C193.586 377.957 193.422 378.766 193.422 379.633V384.977H208.82V379.633ZM244.398 406L242.008 402.414C241.023 403.703 239.793 404.746 238.316 405.543C236.84 406.316 235.223 406.703 233.465 406.703H232.375C230.922 406.703 229.551 406.434 228.262 405.895C226.973 405.332 225.848 404.57 224.887 403.609C223.926 402.648 223.164 401.523 222.602 400.234C222.062 398.945 221.793 397.574 221.793 396.121V395.77C221.793 394.316 222.062 392.945 222.602 391.656C223.164 390.367 223.926 389.242 224.887 388.281C225.848 387.32 226.973 386.57 228.262 386.031C229.551 385.469 230.922 385.188 232.375 385.188H241.516V379.633C241.516 378.766 241.352 377.957 241.023 377.207C240.695 376.434 240.25 375.766 239.688 375.203C239.125 374.641 238.457 374.195 237.684 373.867C236.934 373.539 236.125 373.375 235.258 373.375H232.727C231.859 373.375 231.039 373.539 230.266 373.867C229.516 374.195 228.859 374.641 228.297 375.203C227.734 375.766 227.289 376.434 226.961 377.207C226.633 377.957 226.469 378.766 226.469 379.633V380.934L222.145 380.23V379.879C222.145 378.426 222.414 377.055 222.953 375.766C223.516 374.477 224.277 373.352 225.238 372.391C226.199 371.43 227.324 370.68 228.613 370.141C229.902 369.578 231.273 369.297 232.727 369.297H235.258C236.711 369.297 238.082 369.578 239.371 370.141C240.66 370.68 241.785 371.43 242.746 372.391C243.707 373.352 244.457 374.477 244.996 375.766C245.559 377.055 245.84 378.426 245.84 379.879V406H244.398ZM241.516 388.562H232.375C231.508 388.562 230.688 388.727 229.914 389.055C229.164 389.383 228.508 389.84 227.945 390.426C227.383 390.988 226.938 391.656 226.609 392.43C226.281 393.18 226.117 393.988 226.117 394.855V396.367C226.117 397.234 226.281 398.055 226.609 398.828C226.938 399.578 227.383 400.234 227.945 400.797C228.508 401.359 229.164 401.805 229.914 402.133C230.688 402.461 231.508 402.625 232.375 402.625H235.258C236.125 402.625 236.934 402.461 237.684 402.133C238.457 401.805 239.125 401.359 239.688 400.797C240.25 400.234 240.695 399.578 241.023 398.828C241.352 398.055 241.516 397.234 241.516 396.367V388.562ZM265.07 374.113C264.203 374.113 263.383 374.277 262.609 374.605C261.859 374.934 261.203 375.379 260.641 375.941C260.078 376.504 259.633 377.172 259.305 377.945C258.977 378.695 258.812 379.504 258.812 380.371V406H254.488V370H255.93L258.285 373.656C259.27 372.32 260.5 371.266 261.977 370.492C263.477 369.695 265.105 369.297 266.863 369.297H269.395V374.113H265.07ZM294.883 406V379.633C294.883 378.766 294.719 377.957 294.391 377.207C294.062 376.434 293.617 375.766 293.055 375.203C292.492 374.641 291.824 374.195 291.051 373.867C290.301 373.539 289.492 373.375 288.625 373.375H285.742C284.875 373.375 284.055 373.539 283.281 373.867C282.531 374.195 281.875 374.641 281.312 375.203C280.75 375.766 280.305 376.434 279.977 377.207C279.648 377.957 279.484 378.766 279.484 379.633V406H275.16V370H276.602L278.957 373.656C279.941 372.32 281.172 371.266 282.648 370.492C284.148 369.695 285.777 369.297 287.535 369.297H288.625C290.078 369.297 291.449 369.578 292.738 370.141C294.027 370.68 295.152 371.43 296.113 372.391C297.074 373.352 297.824 374.477 298.363 375.766C298.926 377.055 299.207 378.426 299.207 379.879V406H294.883ZM194.477 486.328C194.477 488.039 194.148 489.645 193.492 491.145C192.859 492.645 191.98 493.957 190.855 495.082C189.73 496.207 188.418 497.098 186.918 497.754C185.418 498.387 183.812 498.703 182.102 498.703H178.516C176.805 498.703 175.188 498.387 173.664 497.754C172.164 497.098 170.852 496.207 169.727 495.082C168.602 493.957 167.711 492.645 167.055 491.145C166.422 489.645 166.105 488.039 166.105 486.328V459.258C166.105 457.547 166.422 455.941 167.055 454.441C167.711 452.941 168.602 451.629 169.727 450.504C170.852 449.379 172.164 448.5 173.664 447.867C175.188 447.211 176.805 446.883 178.516 446.883H182.102C183.812 446.883 185.418 447.211 186.918 447.867C188.418 448.5 189.73 449.379 190.855 450.504C191.98 451.629 192.859 452.941 193.492 454.441C194.148 455.941 194.477 457.547 194.477 459.258V461.297L189.941 462V459.258C189.941 458.133 189.73 457.09 189.309 456.129C188.887 455.145 188.312 454.289 187.586 453.562C186.859 452.836 186.004 452.262 185.02 451.84C184.059 451.418 183.016 451.207 181.891 451.207H178.727C177.602 451.207 176.547 451.418 175.562 451.84C174.602 452.262 173.746 452.836 172.996 453.562C172.27 454.289 171.695 455.145 171.273 456.129C170.852 457.09 170.641 458.133 170.641 459.258V486.328C170.641 487.453 170.852 488.508 171.273 489.492C171.695 490.453 172.27 491.309 172.996 492.059C173.746 492.785 174.602 493.359 175.562 493.781C176.547 494.203 177.602 494.414 178.727 494.414H181.891C183.016 494.414 184.059 494.203 185.02 493.781C186.004 493.359 186.859 492.785 187.586 492.059C188.312 491.309 188.887 490.453 189.309 489.492C189.73 488.508 189.941 487.453 189.941 486.328V483.586L194.477 484.324V486.328ZM227.207 488.121C227.207 489.574 226.926 490.945 226.363 492.234C225.824 493.523 225.074 494.648 224.113 495.609C223.152 496.57 222.027 497.332 220.738 497.895C219.449 498.434 218.078 498.703 216.625 498.703H213.742C212.289 498.703 210.918 498.434 209.629 497.895C208.34 497.332 207.215 496.57 206.254 495.609C205.293 494.648 204.531 493.523 203.969 492.234C203.43 490.945 203.16 489.574 203.16 488.121V471.879C203.16 470.426 203.43 469.055 203.969 467.766C204.531 466.477 205.293 465.352 206.254 464.391C207.215 463.43 208.34 462.68 209.629 462.141C210.918 461.578 212.289 461.297 213.742 461.297H216.625C218.078 461.297 219.449 461.578 220.738 462.141C222.027 462.68 223.152 463.43 224.113 464.391C225.074 465.352 225.824 466.477 226.363 467.766C226.926 469.055 227.207 470.426 227.207 471.879V488.121ZM222.883 471.633C222.883 470.766 222.719 469.957 222.391 469.207C222.062 468.434 221.617 467.766 221.055 467.203C220.492 466.641 219.824 466.195 219.051 465.867C218.301 465.539 217.492 465.375 216.625 465.375H213.742C212.875 465.375 212.055 465.539 211.281 465.867C210.531 466.195 209.875 466.641 209.312 467.203C208.75 467.766 208.305 468.434 207.977 469.207C207.648 469.957 207.484 470.766 207.484 471.633V488.367C207.484 489.234 207.648 490.055 207.977 490.828C208.305 491.578 208.75 492.234 209.312 492.797C209.875 493.359 210.531 493.805 211.281 494.133C212.055 494.461 212.875 494.625 213.742 494.625H216.625C217.492 494.625 218.301 494.461 219.051 494.133C219.824 493.805 220.492 493.359 221.055 492.797C221.617 492.234 222.062 491.578 222.391 490.828C222.719 490.055 222.883 489.234 222.883 488.367V471.633ZM258.461 498L256.07 494.344C255.086 495.68 253.855 496.746 252.379 497.543C250.902 498.316 249.285 498.703 247.527 498.703H246.438C244.984 498.703 243.613 498.434 242.324 497.895C241.035 497.332 239.91 496.57 238.949 495.609C237.988 494.648 237.227 493.523 236.664 492.234C236.125 490.945 235.855 489.574 235.855 488.121V471.879C235.855 470.426 236.125 469.055 236.664 467.766C237.227 466.477 237.988 465.352 238.949 464.391C239.91 463.43 241.035 462.68 242.324 462.141C243.613 461.578 244.984 461.297 246.438 461.297H247.527C249.145 461.297 250.645 461.625 252.027 462.281C253.41 462.938 254.594 463.852 255.578 465.023V447.586H259.902V498H258.461ZM255.578 471.633C255.578 470.766 255.414 469.957 255.086 469.207C254.758 468.434 254.312 467.766 253.75 467.203C253.188 466.641 252.52 466.195 251.746 465.867C250.996 465.539 250.188 465.375 249.32 465.375H246.438C245.57 465.375 244.75 465.539 243.977 465.867C243.227 466.195 242.57 466.641 242.008 467.203C241.445 467.766 241 468.434 240.672 469.207C240.344 469.957 240.18 470.766 240.18 471.633V488.367C240.18 489.234 240.344 490.055 240.672 490.828C241 491.578 241.445 492.234 242.008 492.797C242.57 493.359 243.227 493.805 243.977 494.133C244.75 494.461 245.57 494.625 246.438 494.625H249.32C250.188 494.625 250.996 494.461 251.746 494.133C252.52 493.805 253.188 493.359 253.75 492.797C254.312 492.234 254.758 491.578 255.086 490.828C255.414 490.055 255.578 489.234 255.578 488.367V471.633ZM292.598 488.121C292.598 489.574 292.316 490.945 291.754 492.234C291.215 493.523 290.465 494.648 289.504 495.609C288.543 496.57 287.418 497.332 286.129 497.895C284.84 498.434 283.469 498.703 282.016 498.703H279.133C277.68 498.703 276.309 498.434 275.02 497.895C273.73 497.332 272.605 496.57 271.645 495.609C270.684 494.648 269.922 493.523 269.359 492.234C268.82 490.945 268.551 489.574 268.551 488.121V471.879C268.551 470.426 268.82 469.055 269.359 467.766C269.922 466.477 270.684 465.352 271.645 464.391C272.605 463.43 273.73 462.68 275.02 462.141C276.309 461.578 277.68 461.297 279.133 461.297H282.016C283.469 461.297 284.84 461.578 286.129 462.141C287.418 462.68 288.543 463.43 289.504 464.391C290.465 465.352 291.215 466.477 291.754 467.766C292.316 469.055 292.598 470.426 292.598 471.879V480.352H272.875V488.367C272.875 489.234 273.039 490.055 273.367 490.828C273.695 491.578 274.141 492.234 274.703 492.797C275.266 493.359 275.922 493.805 276.672 494.133C277.445 494.461 278.266 494.625 279.133 494.625H282.016C282.883 494.625 283.691 494.461 284.441 494.133C285.215 493.805 285.883 493.359 286.445 492.797C287.008 492.234 287.453 491.578 287.781 490.828C288.109 490.055 288.273 489.234 288.273 488.367V485.977L292.598 486.68V488.121ZM288.273 471.633C288.273 470.766 288.109 469.957 287.781 469.207C287.453 468.434 287.008 467.766 286.445 467.203C285.883 466.641 285.215 466.195 284.441 465.867C283.691 465.539 282.883 465.375 282.016 465.375H279.133C278.266 465.375 277.445 465.539 276.672 465.867C275.922 466.195 275.266 466.641 274.703 467.203C274.141 467.766 273.695 468.434 273.367 469.207C273.039 469.957 272.875 470.766 272.875 471.633V476.977H288.273V471.633Z" fill="black"/>
<rect x="413" y="415" width="279" height="92" fill="#C4C4C4"/>
<rect x="422" y="423" width="197" height="9" fill="#2C2C2C"/>
<rect x="422" y="446" width="215" height="52" fill="#2C2C2C"/>
<rect x="645" y="423" width="40" height="9" fill="#2C2C2C"/>
<rect x="645" y="446" width="40" height="23" fill="#2C2C2C"/>
<rect x="650" y="488" width="30" height="10" fill="#2C2C2C"/>
<rect x="660" y="478" width="10" height="10" fill="#2C2C2C"/>
<rect x="432" y="255" width="228" height="116" rx="25" fill="#787878"/>
<g filter="url(#filter0_d)">
<rect x="439" y="263" width="213" height="99" rx="25" fill="white"/>
</g>
<rect x="449" y="273" width="62" height="9" rx="4.5" fill="#A709DE"/>
<rect x="449" y="308" width="62" height="9" rx="4.5" fill="#A709DE"/>
<rect x="449" y="326" width="25" height="9" rx="4.5" fill="#A709DE"/>
<rect x="449" y="290" width="81" height="9" rx="4.5" fill="#A709DE"/>
<defs>
<filter id="filter0_d" x="435" y="263" width="221" height="107" filterUnits="userSpaceOnUse" color-interpolation-filters="sRGB">
<feFlood flood-opacity="0" result="BackgroundImageFix"/>
<feColorMatrix in="SourceAlpha" type="matrix" values="0 0 0 0 0 0 0 0 0 0 0 0 0 0 0 0 0 0 127 0"/>
<feOffset dy="4"/>
<feGaussianBlur stdDeviation="2"/>
<feColorMatrix type="matrix" values="0 0 0 0 0 0 0 0 0 0 0 0 0 0 0 0 0 0 0.25 0"/>
<feBlend mode="normal" in2="BackgroundImageFix" result="effect1_dropShadow"/>
<feBlend mode="normal" in="SourceGraphic" in2="effect1_dropShadow" result="shape"/>
</filter>
</defs>
</svg>
